<!-- Generated by IcoMoon.io -->
<svg version="1.1" xmlns="http://www.w3.org/2000/svg" width="1024" height="1024" viewBox="0 0 1024 1024">
<g id="icomoon-ignore">
</g>
<path d="M173.663 592.724c-0.005-16.755 0.319-32.742-0.166-48.699-0.2-6.531 2.139-10.642 7.088-14.531 13.19-10.358 26.040-21.144 39.008-31.784 1.439-1.183 2.765-2.509 5.013-4.567-7.763-6.428-15.027-12.496-22.348-18.497-12.085-9.914-24.075-19.949-36.441-29.5-1.981-1.533-6.805-2.223-8.445-0.927-20.065 15.813-39.786 32.068-60.632 49.055 11.494 9.436 22.342 18.456 33.31 27.318 18.163 14.674 18.195 14.632 18.195 38.165 0 11.566 0.036 23.134-0.032 34.705-0.013 2.616-0.382 5.231-0.79 10.451-27.264-22.229-52.759-43.015-79.051-64.454 9.958-8.218 18.812-15.521 27.958-23.067-9.132-7.591-17.934-14.904-27.782-23.090 11.841-9.76 22.957-18.983 34.141-28.122 17.245-14.093 34.619-28.031 51.761-42.253 4.37-3.625 8.171-3.829 12.447-0.329 27.582 22.597 55.184 45.176 82.761 67.787 0.82 0.673 1.412 1.614 3.005 3.475-8.95 7.434-17.716 14.717-27.157 22.561 7.783 6.425 15.222 12.74 22.864 18.785 3.2 2.531 4.554 4.763 0.83 7.791-23.458 19.083-46.912 38.179-70.416 57.209-0.943 0.762-2.402 0.879-4.608 1.633-0.201-3.212-0.358-5.769-0.521-9.105zM112.529 529.398c-5.145 2.855-10.283 5.71-16.77 9.306 12.201 9.838 22.75 18.342 33.697 27.164 3.378-14.486 1.331-25.394-11.583-32.039-1.664-0.857-2.971-2.413-5.344-4.432zM192.053 564.37c10.895-7.946 21.785-15.887 33.634-24.529-6.013-4.847-10.186-8.209-14.229-11.464-13.256 8.144-24.266 17.040-19.406 35.99z"></path>
<path d="M391.946 550.828c-1.404 4.341-2.807 8.687-4.396 13.604-1.422 0-3.816 0-6.976 0 0-3.977 0-7.973 0-12.422-24.267 0-47.782 0-71.616 0-0.242 4.073-0.467 7.849-0.732 12.318-2.731 0.149-5.279 0.287-8.325 0.454 0-7.381 0-14.152 0-20.924 0.675 0.471 1.347 0.943 2.024 1.412 2.871-3.548 6.655-6.681 8.466-10.703 10.338-23.009 20.202-46.231 30.259-69.363 0.503-1.166 1.31-2.2 2.888-4.8 2.145 3.65 3.904 6.142 5.158 8.866 10.428 22.659 20.659 45.404 31.243 67.988 1.319 2.815 4.342 4.836 6.575 7.226 0.56-0.4 1.12-0.798 1.684-1.194 0.798 2.456 1.599 4.913 3.090 7.471 0.694 0.102 0.664 0.067 0.664 0.067zM349.195 492.853c-1.718-3.625-3.436-7.251-5.721-12.072-9.024 21.316-17.523 41.398-26.132 61.747 18.584 0 35.743 0 54.043 0-7.449-16.748-14.52-32.653-22.183-49.675z"></path>
<path d="M394.070 547.492c9.666-10.875 19.327-21.756 28.863-32.489-9.377-9.734-18.667-19.376-28.068-29.13 5.209-2.131 9.366-0.315 13.441 3.699 8.194 8.064 16.714 15.79 26.074 24.574 0-10.258 0-19.115 0-28.479 3.043 0 5.586 0 8.746 0 0 9.032 0 17.974 0 27.215 14.866-7.683 21.594-26.060 41.263-28.64-10.369 11.248-19.508 21.166-29.118 31.587 9.744 10.761 20.345 22.471 31.36 34.636-6.713 2.431-10.794 0.626-14.685-4.186-6.387-7.893-13.358-15.322-20.28-22.767-1.26-1.355-4.355-3.029-5.016-2.516-1.633 1.271-3.201 3.688-3.293 5.714-0.364 7.927-0.149 15.887-0.149 24.328-3.060 0-5.595 0-7.844 0-3.196-10.181 3.075-21.709-4.696-31.747-11.003 11.398-21.005 21.76-31.669 31.542-1.689-1.168-2.716-1.756-4.028-2.614-0.282-0.268-0.902-0.737-0.902-0.737z"></path>
<path d="M762.276 482.118c-2.616-0.847-5.15-1.603-6.903-3.21-11.787-10.832-30.459-13.317-46.16-5.909-12.739 6.011-20.677 20.736-19.907 36.921 0.702 14.803 10.605 28.039 24.845 32.664 15.273 4.959 29.227 2.444 41.519-8.148 1.432-1.234 2.891-2.429 4.624-3.881 2.234 1.807 4.292 3.473 6.339 5.124-18.026 23.672-55.908 21.268-71.323 6.446-20.163-19.39-21.219-50.59-2.12-69.065 19.886-19.236 56.019-18.025 73.485 5.195-1.293 1.168-2.625 2.367-4.399 3.871z"></path>
<path d="M873.196 531.314c2.293 6.825 4.384 13.033 6.51 19.347-5.928 2.068-8.882 0.849-10.681-5.202-3.906-13.15-8.678-26.041-13.129-39.031-0.159-0.454-0.656-0.798-1.866-2.198-8.417 15.941-16.615 31.466-25.56 48.407-8.914-16.893-17.281-32.745-26.351-49.935-5.045 15.111-9.962 28.756-14.066 42.641-1.793 6.064-4.897 7.188-10.997 5.469 7.584-22.079 15.078-43.889 22.571-65.696 0.72-0.091 1.438-0.185 2.155-0.279 8.679 16.825 17.357 33.653 26.688 51.748 9.317-18.006 18.028-34.85 27.926-53.984 6.032 17.494 11.315 32.793 16.792 48.714z"></path>
<path d="M543.633 489.164c21.93 16.011 19.104 47.166-1.947 59.256-14.829 8.515-32.898 5.075-43.834-8.079-10.378-12.484-10.408-31.518-0.078-44.221 10.991-13.511 29.068-16.395 45.859-6.955zM534.232 493.911c-12.814-4.104-23.627-0.912-30.561 9.027-6.683 9.572-6.32 22.778 0.889 32.203 6.528 8.54 18.411 11.954 28.832 8.114 10.408-3.839 15.469-12.020 16.564-22.493 1.242-11.877-4.43-20.482-15.719-26.849z"></path>
<path d="M574.845 536.711c0.002-17.266 0.002-33.74 0.002-51.091 2.739-0.148 5.257-0.282 8.589-0.462 0 9.078 0 17.48 0 26.132 13.015 0 25.272 0 37.976 0 0-8.531 0-16.733 0-25.518 2.962 0 5.472 0 8.28 0 0 21.749 0 43.341 0 65.342-2.648 0-4.946 0-7.999 0 0-10.542 0-20.878 0-31.489-13 0-25.246 0-38.163 0 0 10.434 0 20.523 0 31.212-2.888 0.298-5.172 0.53-8.687 0.896 0-5.125 0-9.671 0.002-15.016z"></path>
<path d="M159.575 488.029c-3.663 2.962-6.848 5.574-10.052 8.171-12.167 9.865-12.169 9.864-24.522-3.216 11.104-8.85 22.050-17.742 33.266-26.277 1.28-0.972 4.732-0.75 6.101 0.313 10.753 8.348 21.244 17.038 32.499 26.174-2.852 2.73-4.851 4.498-6.681 6.425-4.612 4.846-8.811 5.175-14.018 0.281-4.882-4.597-10.714-8.188-16.598-11.868z"></path>
<path d="M930.234 550.367c-0.336-19.321-0.336-38.004-0.336-57.504-5.888 0-11.232 0-17.065 0 0-2.828 0-4.854 0-7.36 13.907 0 27.816 0 42.248 0 0.159 2.026 0.328 4.066 0.546 6.795-5.535 0-10.655 0-16.622 0 0 19.72 0 38.817 0 59.082-3.392-0.152-5.909-0.262-8.769-1.011z"></path>
<path d="M899.852 496.050c0 18.599 0 36.433 0 55.059-2.907 0.136-5.393 0.253-8.273 0.385 0-22.065 0-43.436 0-65.775 2.266-0.208 4.795-0.445 8.274-0.768 0 3.894 0 7.113 0 11.095z"></path>
<path d="M890.648 460.144c5.225-3.415 9.914-3.076 11.339 2.69 0.581 2.364-2.606 6.174-4.931 8.452-0.8 0.786-5.521-0.491-6.119-1.851-1.119-2.549-0.536-5.847-0.284-9.293z"></path>
<path d="M392.441 551.14c-0.495-0.309-0.465-0.28-0.445-0.264 0.439-0.896 0.859-1.807 1.676-3.051 0.399-0.331 1.019 0.136 1.295 0.859 0.274 1.329 0.269 1.933 0.264 2.544-0.767 0.076-1.534 0.151-2.788-0.087z"></path>
<path d="M395.779 551.38c-0.544-0.761-0.539-1.363-0.529-2.426 1.033 0.136 2.059 0.724 3.197 1.781-0.633 0.578-1.376 0.689-2.667 0.648z"></path>
</svg>
