<svg aria-hidden="true" style="position: absolute; width: 0; height: 0; overflow: hidden;"
    version="1.1" xmlns="http://www.w3.org/2000/svg" xmlns:xlink="http://www.w3.org/1999/xlink">
    <defs>
        <symbol id="icon-arrow" viewBox="0 0 39 32">
            <path
                d="M27.146 2.329l10.746 11.25c0.643 0.621 0.964 1.468 0.964 2.4s-0.321 1.768-0.964 2.4l-10.746 11.293c-1.275 1.339-3.354 1.339-4.629 0s-1.275-3.504 0-4.843l5.164-5.4h-23.25c-1.821 0-3.289-1.532-3.289-3.429s1.468-3.429 3.279-3.429h23.25l-5.164-5.4c-1.275-1.339-1.275-3.504 0-4.843 1.286-1.339 3.354-1.339 4.639 0z"
                fill="currentColor">
            </path>
        </symbol>

        <symbol id="icon-burger" viewBox="0 0 51 32">
            <path fill="none" stroke="#fff" style="stroke: var(--color1, #fff)"
                stroke-linejoin="miter" stroke-linecap="round" stroke-miterlimit="4"
                stroke-width="1.8824" d="M1.882 1.882h47.059"></path>
            <path fill="none" stroke="#fff" style="stroke: var(--color1, #fff)"
                stroke-linejoin="miter" stroke-linecap="round" stroke-miterlimit="4"
                stroke-width="1.8824" d="M1.882 16h47.059"></path>
            <path fill="none" stroke="#fff" style="stroke: var(--color1, #fff)"
                stroke-linejoin="miter" stroke-linecap="round" stroke-miterlimit="4"
                stroke-width="1.8824" d="M1.882 30.118h47.059"></path>
        </symbol>

        <symbol id="icon-business" viewBox="0 0 33 32">
            <path
                d="M0.406 0.075c0.089-0.036 2.423-0.068 5.185-0.070l5.022-0.005 0.495 0.443v8.729l-0.21 0.21c-0.201 0.201-0.248 0.211-1.062 0.235-0.468 0.014-0.884 0.057-0.925 0.096s-0.108 0.414-0.152 0.833l-0.079 0.762-1.941-1.678h-3.071c-3.342 0-3.44-0.012-3.598-0.426-0.043-0.113-0.073-1.923-0.073-4.453 0-4.618-0.010-4.508 0.406-4.676zM19.893 0.112c-2.183 0.396-3.94 1.754-4.872 3.767-0.535 1.155-0.554 1.292-0.616 4.5-0.059 3.054-0.109 3.504-0.521 4.684-0.405 1.162-1.155 2.115-2.023 2.573l-0.501 0.264 0.367 0.265c0.424 0.306 0.923 0.517 1.223 0.517 0.115 0 0.549-0.090 0.965-0.199 0.641-0.168 0.983-0.206 2.235-0.246l1.479-0.048 0.126-0.607c0.069-0.334 0.129-0.857 0.133-1.164l0.006-0.557-0.46-0.502c-0.536-0.585-1.050-1.565-1.3-2.479-0.155-0.566-0.168-0.806-0.194-3.55-0.029-3.045-0.019-3.16 0.276-3.16 0.068 0 0.396 0.136 0.73 0.303 1.053 0.526 1.969 0.655 2.977 0.417 0.879-0.207 1.974-0.871 2.745-1.662 0.508-0.522 0.755-0.453 0.986 0.276 0.202 0.639 1.105 1.361 1.836 1.469 0.181 0.027 0.405 0.097 0.499 0.155 0.17 0.106 0.171 0.109 0.171 2.253 0 1.627-0.030 2.319-0.122 2.861-0.224 1.31-0.69 2.325-1.465 3.191l-0.384 0.429v0.611c0 0.336 0.056 0.864 0.123 1.173l0.123 0.561 1.488 0.039c1.234 0.032 1.592 0.068 2.095 0.21 1.147 0.324 1.438 0.291 2.248-0.249l0.465-0.311-0.371-0.165c-0.578-0.257-1.114-0.731-1.53-1.353-0.424-0.635-0.622-1.107-0.907-2.171-0.185-0.69-0.196-0.844-0.25-3.64-0.061-3.127-0.085-3.341-0.503-4.388-0.669-1.676-2.085-3.078-3.77-3.732-1.072-0.416-2.378-0.541-3.508-0.336zM5.274 1.23c-0.066 0.095-0.118 0.325-0.118 0.526 0 0.294-0.028 0.366-0.157 0.407-0.248 0.079-0.673 0.488-0.834 0.803-0.208 0.408-0.196 1.013 0.029 1.439 0.248 0.47 0.666 0.743 1.268 0.827 0.625 0.088 0.907 0.354 0.905 0.854-0.003 0.505-0.333 0.814-0.872 0.814-0.229 0-0.335-0.060-0.609-0.341-0.182-0.188-0.363-0.341-0.402-0.341s-0.147 0.063-0.242 0.139c-0.138 0.112-0.161 0.182-0.116 0.358 0.066 0.262 0.578 0.771 0.842 0.837 0.162 0.041 0.187 0.090 0.187 0.363 0 0.377 0.172 0.653 0.406 0.653 0.258 0 0.352-0.145 0.352-0.544 0-0.344 0.015-0.37 0.292-0.511 1.437-0.733 1.081-2.794-0.519-3.004-0.188-0.025-0.418-0.076-0.512-0.114-0.194-0.079-0.473-0.495-0.473-0.706-0.001-0.28 0.239-0.644 0.507-0.772 0.398-0.189 0.686-0.103 1.055 0.316 0.266 0.302 0.34 0.346 0.511 0.303 0.553-0.139 0.094-1.095-0.65-1.354-0.196-0.068-0.21-0.101-0.21-0.505 0-0.238-0.041-0.473-0.091-0.523-0.145-0.145-0.421-0.106-0.549 0.078zM22.71 4.228c-1.677 1.476-3.839 1.915-5.634 1.146-0.182-0.078-0.345-0.142-0.362-0.142-0.070 0-0.026 4.478 0.048 4.896 0.209 1.183 0.658 2.132 1.323 2.801 0.544 0.547 1.036 0.823 1.826 1.025 0.695 0.178 1.387 0.189 2.117 0.035 1.255-0.265 2.148-0.982 2.726-2.189 0.566-1.181 0.607-1.444 0.609-3.906l0.002-2.153-0.303-0.091c-0.757-0.227-1.53-0.815-1.908-1.452l-0.141-0.237-0.302 0.266zM18.626 14.863c-0.027 0.292-0.106 0.79-0.175 1.105l-0.126 0.574 1.332 1.332c0.824 0.824 1.372 1.317 1.437 1.292 0.058-0.022 0.674-0.635 1.369-1.363l1.265-1.323-0.147-0.715c-0.081-0.393-0.148-0.877-0.148-1.075s-0.015-0.36-0.033-0.36-0.187 0.067-0.377 0.148c-0.485 0.208-1.389 0.383-1.98 0.383-0.593 0-1.537-0.182-2-0.385-0.183-0.080-0.34-0.146-0.349-0.146s-0.040 0.239-0.067 0.531zM15.514 18.010l-0.204 1.024 0.478 0.436c0.81 0.739 0.971 0.909 0.971 1.033 0 0.066-0.225 0.468-0.5 0.893s-0.517 0.817-0.537 0.869c-0.039 0.102 3.694 6.774 4.698 8.396 0.331 0.535 0.628 0.945 0.658 0.91 0.194-0.223 1.309-2.133 3.072-5.258 1.117-1.981 2.082-3.69 2.145-3.798 0.11-0.189 0.095-0.224-0.426-1.031-0.297-0.459-0.54-0.9-0.541-0.979-0.001-0.084 0.297-0.429 0.712-0.827l0.713-0.683-0.388-2.009h-1.979l-1.599 1.592c-0.953 0.949-1.657 1.592-1.742 1.592s-0.789-0.643-1.742-1.592l-1.599-1.592h-1.983l-0.204 1.024zM13.991 17.25c-2.17 0.645-3.863 2.132-4.704 4.13-0.537 1.277-0.52 1.080-0.548 6.089l-0.025 4.531h3.343l0.001-2.711c0.001-1.491 0.026-2.749 0.057-2.795 0.117-0.177 0.384-0.193 0.545-0.033 0.151 0.151 0.156 0.234 0.156 2.847v2.692h3.754c2.064 0 3.754-0.015 3.754-0.034s-0.208-0.364-0.462-0.767c-0.769-1.22-4.998-8.75-4.998-8.899 0-0.076 0.229-0.49 0.51-0.919l0.51-0.781-0.661-0.614c-0.504-0.468-0.661-0.661-0.661-0.811 0-0.108 0.085-0.616 0.19-1.128s0.19-0.943 0.19-0.958c0-0.070-0.395-0.003-0.948 0.161zM27.147 17.125c0 0.035 0.088 0.499 0.196 1.031s0.177 1.041 0.153 1.131c-0.023 0.090-0.331 0.415-0.683 0.724l-0.64 0.56 0.412 0.638c0.227 0.351 0.466 0.722 0.533 0.824s0.105 0.249 0.084 0.327c-0.050 0.193-4.36 7.821-4.96 8.778-0.264 0.422-0.481 0.789-0.481 0.815s1.843 0.048 4.095 0.048h4.095l0.001-2.711c0.001-1.491 0.026-2.749 0.057-2.795 0.117-0.177 0.384-0.193 0.545-0.033 0.151 0.151 0.156 0.234 0.156 2.847v2.692h2.662l-0.026-4.493c-0.025-4.408-0.029-4.504-0.199-5.1-0.738-2.59-2.709-4.556-5.211-5.196-0.648-0.166-0.79-0.181-0.79-0.086z"></path>
        </symbol>

        <symbol id="icon-civilian-case" viewBox="0 0 33 32">
            <path fill="#837676" style="fill: var(--color2, #837676)" d="M0 0h33.28v32h-33.28v-32z"></path>
            <path fill="#fff" style="fill: var(--color1, #fff)"
                d="M-542.080-2550.4h1228.8v4731.52h-1228.8v-4731.52z"></path>
            <path fill="#f5f5f5" style="fill: var(--color3, #f5f5f5)"
                d="M-51.2-29.44h247.68v90.24h-247.68v-90.24z"></path>
            <path fill="#000" style="fill: var(--color4, #000)"
                d="M13.674 0.153c0.266-0.209 0.439-0.204 0.701 0.021 0.42 0.361 0.186 0.988-0.369 0.988-0.514 0-0.74-0.688-0.332-1.009zM23.099 1.236c0.092-0.039 0.29-0.055 0.44-0.035 0.236 0.031 0.591 0.355 2.635 2.402 2.232 2.235 2.363 2.382 2.363 2.65 0 0.569-0.601 0.983-1.068 0.736-0.121-0.064-1.248-1.148-2.504-2.409-2.228-2.236-2.284-2.3-2.284-2.604 0-0.344 0.162-0.632 0.418-0.741zM6.627 1.637c0.693-0.201 1.552-0.018 2.152 0.458 0.44 0.349 0.798 1.099 0.809 1.695 0.017 0.949-0.441 1.707-1.286 2.129-1.704 0.851-3.655-0.653-3.268-2.518 0.16-0.771 0.866-1.552 1.593-1.763zM31.304 1.744c0.105-0.105 0.283-0.192 0.394-0.192 0.26 0 0.586 0.325 0.586 0.586s-0.325 0.586-0.586 0.586c-0.26 0-0.586-0.325-0.586-0.586 0-0.111 0.086-0.288 0.192-0.394zM20.612 2.721c0.386-0.078 0.862-0.144 1.057-0.148 0.317-0.006 0.369 0.019 0.498 0.237l0.144 0.243-2.137 2.138c-1.175 1.176-2.165 2.138-2.199 2.138s-0.169-0.079-0.3-0.176c-0.343-0.254-1.158-0.25-1.572 0.007-0.67 0.417-0.903 1.382-0.499 2.065 0.107 0.181 1.243 1.368 2.523 2.638 2.383 2.363 2.547 2.494 3.118 2.492 1.149-0.003 1.867-1.263 1.314-2.304l-0.2-0.376 0.49-0.495c0.27-0.272 0.527-0.495 0.571-0.495s1.398 1.32 3.008 2.933c1.671 1.674 3.059 3.001 3.233 3.092 0.424 0.221 1.084 0.172 1.512-0.111 0.587-0.388 0.817-1.289 0.49-1.917-0.083-0.159-1.471-1.607-3.084-3.217s-2.933-2.964-2.933-3.008 0.223-0.301 0.495-0.571l0.495-0.49 0.376 0.2c0.885 0.47 1.967 0.044 2.223-0.876 0.209-0.751 0.066-1.049-1.047-2.195-0.881-0.907-0.916-0.954-0.55-0.747 1.844 1.043 3.362 2.621 4.287 4.456 2.155 4.279 1.109 9.498-2.515 12.553-0.434 0.366-0.638 0.592-0.636 0.703 0.002 0.090 0.083 0.805 0.179 1.588s0.145 1.425 0.107 1.425c-0.038 0-0.83-0.355-1.76-0.788-1.425-0.664-1.735-0.781-1.965-0.745-0.15 0.023-0.589 0.097-0.976 0.163-0.905 0.155-2.535 0.155-3.435-0.001-1.391-0.241-2.825-0.818-4.063-1.637-0.613-0.405-2.066-1.699-2.066-1.84 0-0.042 2.455-0.071 5.97-0.071h5.97l0.089-0.166c0.064-0.121 0.066-0.217 0.004-0.351-0.076-0.167-0.133-0.185-0.594-0.185h-0.509l-0.002-0.605c-0.002-0.774-0.174-1.176-0.63-1.478l-0.332-0.22-3.87-0.022c-4.31-0.025-4.304-0.026-4.76 0.494-0.285 0.325-0.397 0.703-0.398 1.344l-0 0.488h-1.563l-0.262-0.41c-0.633-0.99-1.152-2.271-1.421-3.5-0.171-0.785-0.234-2.616-0.117-3.438 0.051-0.36 0.176-0.97 0.278-1.357 0.993-3.771 4.103-6.683 7.965-7.458zM20.709 5.749l2.166-2.167 3.279 3.279-4.332 4.332-3.28-3.277 2.166-2.167zM0.223 7.054c0.592-0.415 1.272 0.448 0.705 0.894-0.336 0.264-0.666 0.203-0.853-0.159-0.14-0.271-0.079-0.576 0.148-0.735zM16.381 7.908c0.156-0.134 0.313-0.188 0.543-0.188 0.321 0 0.35 0.025 2.617 2.284 1.261 1.256 2.345 2.383 2.409 2.504 0.247 0.467-0.167 1.068-0.736 1.068-0.268 0-0.416-0.131-2.668-2.38l-2.384-2.38v-0.359c0-0.297 0.038-0.392 0.219-0.548zM24.494 9.537c0.267-0.27 0.523-0.49 0.568-0.49s1.404 1.326 3.019 2.947c2.269 2.277 2.948 3.004 2.989 3.195 0.109 0.516-0.404 1.029-0.92 0.92-0.192-0.040-0.918-0.72-3.195-2.989-1.621-1.615-2.947-2.972-2.947-3.015s0.219-0.299 0.486-0.568zM6.322 10.956c0.105-0.105 0.283-0.192 0.394-0.192s0.288 0.086 0.394 0.192c0.105 0.105 0.192 0.283 0.192 0.394s-0.086 0.288-0.192 0.394-0.283 0.192-0.394 0.192c-0.26 0-0.586-0.325-0.586-0.586 0-0.111 0.086-0.288 0.192-0.394zM8.44 15.457c0.977-0.142 2.152-0.070 3.048 0.187l0.4 0.115 0.252 0.723c0.85 2.437 2.375 4.377 4.56 5.799l0.693 0.451-0.040 0.906c-0.049 1.107-0.261 1.977-0.72 2.95-0.434 0.919-0.714 1.322-1.468 2.107-1.247 1.299-2.642 2.035-4.427 2.333-0.906 0.151-1.993 0.123-2.908-0.075l-0.525-0.114-1.243 0.581c-0.684 0.32-1.28 0.581-1.325 0.581-0.048 0-0.065-0.105-0.043-0.254 0.105-0.687 0.227-1.907 0.201-2.010-0.016-0.064-0.258-0.307-0.538-0.539-0.594-0.492-1.302-1.356-1.711-2.087-1.111-1.987-1.298-4.417-0.506-6.582 0.976-2.668 3.444-4.654 6.298-5.071zM16.705 17.514c-0.17 0.17-0.192 0.259-0.192 0.781v0.59l8.471-0.040-0.006-0.577c-0.005-0.529-0.023-0.593-0.219-0.761l-0.214-0.184h-7.649l-0.192 0.192zM8.025 17.713c-3.349 0.878-5.247 4.458-4.093 7.72 0.312 0.883 0.663 1.432 1.386 2.172 0.639 0.654 0.885 0.777 1.109 0.553 0.191-0.191 0.099-0.436-0.292-0.779-1.427-1.249-2.071-3.17-1.683-5.022 0.303-1.447 1.44-2.898 2.772-3.537 1.2-0.576 2.428-0.693 3.699-0.355 0.419 0.112 0.526 0.117 0.628 0.032 0.167-0.139 0.159-0.528-0.013-0.618-0.635-0.332-2.538-0.423-3.512-0.168zM31.84 25.050c-0.565 0.233-0.355 1.094 0.268 1.094 0.278 0 0.567-0.299 0.567-0.587 0-0.378-0.464-0.66-0.834-0.507zM23.969 28.206c-0.543 0.239-0.898 0.798-0.898 1.413 0 0.454 0.147 0.794 0.479 1.108 0.324 0.306 0.598 0.415 1.051 0.415 0.447 0 0.787-0.148 1.1-0.479 0.305-0.322 0.415-0.598 0.415-1.044 0-0.188-0.037-0.44-0.083-0.561-0.112-0.298-0.526-0.722-0.832-0.854-0.315-0.135-0.924-0.134-1.232 0.001zM17.89 30.132c-0.414 0.326-0.181 1.009 0.344 1.009 0.255 0 0.621-0.295 0.621-0.5 0-0.219-0.173-0.497-0.364-0.584-0.268-0.122-0.367-0.11-0.602 0.075z"></path>
        </symbol>

        <symbol id="icon-cross" viewBox="0 0 32 32">
            <path
                d="M25.333 5.333q0.573 0 0.953 0.38t0.38 0.953q0 0.563-0.385 0.948l-8.396 8.385 8.396 8.385q0.385 0.385 0.385 0.948 0 0.573-0.38 0.953t-0.953 0.38q-0.563 0-0.948-0.385l-8.385-8.396-8.385 8.396q-0.385 0.385-0.948 0.385-0.573 0-0.953-0.38t-0.38-0.953q0-0.563 0.385-0.948l8.396-8.385-8.396-8.385q-0.385-0.385-0.385-0.948 0-0.573 0.38-0.953t0.953-0.38q0.563 0 0.948 0.385l8.385 8.396 8.385-8.396q0.385-0.385 0.948-0.385z"></path>
        </symbol>


        <symbol id="icon-family" viewBox="0 0 32 32">
            <path fill="#837676" style="fill: var(--color2, #837676)" d="M0 0h32v32h-32v-32z"></path>
            <path fill="#fff" style="fill: var(--color1, #fff)"
                d="M-547.84-2447.36h1228.8v4731.52h-1228.8v-4731.52z"></path>
            <path fill="#f5f5f5" style="fill: var(--color3, #f5f5f5)"
                d="M-56.96-29.44h247.68v90.24h-247.68v-90.24z"></path>
            <path fill="#000" style="fill: var(--color4, #000)"
                d="M15.609 0.103c0.344-0.214 0.834-0.084 1.047 0.277 0.080 0.136 0.104 0.344 0.104 0.912v0.736h2.526c2.699 0 2.667-0.003 2.917 0.315 0.118 0.15 2.177 6.359 2.177 6.565 0 0.235-0.163 0.506-0.384 0.636-0.154 0.091-0.456 0.104-2.41 0.104s-2.257-0.013-2.41-0.104c-0.221-0.13-0.384-0.401-0.384-0.637 0-0.1 0.386-1.338 0.857-2.752s0.857-2.578 0.857-2.587-0.843-0.017-1.873-0.017h-1.873v8.636h0.99c0.803 0 1.024 0.020 1.166 0.104 0.503 0.297 0.503 1.019 0 1.316-0.155 0.092-0.494 0.104-2.918 0.104s-2.763-0.012-2.918-0.104c-0.503-0.297-0.503-1.019 0-1.316 0.142-0.084 0.363-0.104 1.166-0.104h0.99v-8.636h-1.873c-1.030 0-1.873 0.008-1.873 0.017s0.386 1.173 0.857 2.587c0.472 1.413 0.857 2.652 0.857 2.751 0 0.236-0.163 0.507-0.383 0.637-0.154 0.091-0.456 0.104-2.41 0.104s-2.257-0.013-2.41-0.104c-0.22-0.13-0.384-0.401-0.384-0.636 0-0.206 2.059-6.415 2.177-6.565 0.25-0.318 0.218-0.315 2.917-0.315h2.526v-0.736c0-0.803 0.060-0.994 0.373-1.189zM9.94 6.648c-0.24 0.725-0.45 1.353-0.466 1.397-0.023 0.061 0.19 0.079 0.937 0.079s0.959-0.018 0.937-0.079c-0.016-0.044-0.226-0.672-0.466-1.397s-0.452-1.318-0.471-1.318c-0.019 0-0.231 0.593-0.471 1.318zM21.116 6.648c-0.24 0.725-0.45 1.353-0.466 1.397-0.023 0.061 0.19 0.079 0.937 0.079s0.959-0.018 0.937-0.079c-0.016-0.044-0.226-0.672-0.466-1.397s-0.452-1.318-0.471-1.318c-0.019 0-0.231 0.593-0.471 1.318zM3.235 12.287c-0.376 0.118-0.82 0.508-1.017 0.893-0.13 0.255-0.158 0.4-0.157 0.818 0.001 0.659 0.118 0.882 0.871 1.66l0.575 0.594h6.141v-0.946c0-0.765-0.024-1.023-0.126-1.349-0.234-0.751-0.892-1.409-1.643-1.643-0.368-0.115-0.58-0.126-2.381-0.121-1.515 0.003-2.045 0.025-2.263 0.094zM24.293 12.283c-1.288 0.268-2.211 0.75-3.134 1.64-0.711 0.685-1.218 1.472-1.518 2.353-0.291 0.856-0.341 1.328-0.341 3.22v1.769l0.193 0.304c0.106 0.167 0.268 0.532 0.36 0.812 0.141 0.426 0.168 0.627 0.172 1.245l0.005 0.737 0.445-0.301c0.244-0.165 0.566-0.362 0.714-0.436s0.27-0.154 0.27-0.176c0-0.022-0.084-0.218-0.187-0.435-0.368-0.779-0.413-1.067-0.415-2.633-0.002-1.631 0.034-1.782 0.538-2.286 0.435-0.435 0.718-0.527 1.746-0.568 1.095-0.043 1.266-0.122 1.729-0.797 0.623-0.91 1.486-1.187 2.439-0.782 0.219 0.093 0.562 0.396 1.339 1.184 1.348 1.366 1.287 1.217 1.287 3.154 0 1.674-0.062 2.039-0.484 2.865-0.137 0.268-0.241 0.494-0.232 0.503s0.284 0.194 0.611 0.412c0.326 0.218 0.834 0.63 1.127 0.916l0.533 0.52-0.001-3.91c-0.001-3.569-0.011-3.96-0.119-4.481-0.262-1.262-0.858-2.346-1.764-3.21-0.825-0.786-1.626-1.235-2.725-1.527-0.654-0.174-1.964-0.219-2.59-0.089zM26.141 17.568c-0.372 0.544-0.795 0.946-1.207 1.146-0.521 0.253-0.93 0.332-1.722 0.332-0.897 0-0.864-0.049-0.864 1.288 0 0.581 0.032 1.207 0.071 1.392 0.229 1.080 1.142 2.015 2.249 2.303 1.589 0.414 3.253-0.592 3.678-2.223 0.071-0.272 0.097-0.701 0.097-1.576v-1.203l-0.874-0.88c-1.028-1.034-1.099-1.063-1.429-0.58zM3.552 19.075c0 0.72 0.032 1.448 0.071 1.635 0.229 1.080 1.142 2.015 2.249 2.303 1.589 0.414 3.253-0.592 3.678-2.223 0.072-0.277 0.097-0.713 0.097-1.693v-1.32h-6.096v1.299zM15.205 21.207c-1.003 0.322-1.746 1.348-1.746 2.411 0 1.372 1.168 2.54 2.54 2.54 1.074 0 2.095-0.748 2.414-1.769 0.615-1.97-1.242-3.812-3.208-3.182zM3.457 23.911c-1.256 0.644-2.463 2.001-2.982 3.351-0.378 0.983-0.427 1.275-0.462 2.767-0.028 1.194-0.019 1.387 0.074 1.56 0.232 0.431-0.007 0.411 4.877 0.411h4.41l0.037-0.873c0.080-1.892 0.754-3.418 2.055-4.649 0.292-0.276 0.531-0.537 0.531-0.579s-0.336-0.408-0.747-0.814c-0.526-0.519-0.899-0.826-1.263-1.039-0.284-0.166-0.552-0.302-0.596-0.302s-0.218 0.085-0.387 0.189c-0.757 0.466-1.48 0.666-2.405 0.666-0.912 0-1.659-0.206-2.404-0.665-0.17-0.105-0.334-0.189-0.365-0.188s-0.199 0.075-0.374 0.165zM22.076 24.856c-0.552 0.283-1.068 0.635-1.493 1.017l-0.336 0.302 0.468 0.484c1.199 1.24 1.793 2.658 1.869 4.468l0.037 0.873h4.41c4.89 0 4.645 0.021 4.88-0.416 0.092-0.171 0.103-0.314 0.071-0.925-0.086-1.651-0.74-3.182-1.871-4.381-0.49-0.519-1.098-0.991-1.648-1.277l-0.393-0.205-0.242 0.144c-1.586 0.945-3.459 0.927-4.919-0.048-0.212-0.141-0.389-0.257-0.394-0.257s-0.203 0.1-0.44 0.221zM13.146 27.035c-0.186 0.124-0.513 0.399-0.727 0.61-0.986 0.975-1.5 2.249-1.5 3.716v0.638h10.178l-0.037-0.841c-0.020-0.463-0.084-1.013-0.14-1.222-0.26-0.96-0.944-2.015-1.69-2.607-0.705-0.558-0.68-0.55-0.994-0.334-0.398 0.274-0.888 0.474-1.433 0.587-0.606 0.125-1.001 0.125-1.602 0.001-0.557-0.115-0.913-0.259-1.379-0.557l-0.338-0.216-0.337 0.225z"></path>
        </symbol>

        <symbol id="icon-ground-case" viewBox="0 0 31 32">
            <path fill="#837676" style="fill: var(--color2, #837676)" d="M0 0h30.72v32h-30.72v-32z"></path>
            <path fill="#fff" style="fill: var(--color1, #fff)"
                d="M-542.72-2653.44h1228.8v4731.52h-1228.8v-4731.52z"></path>
            <path fill="#f5f5f5" style="fill: var(--color3, #f5f5f5)"
                d="M-51.84-29.44h247.68v90.24h-247.68v-90.24z"></path>
            <path fill="#000" style="fill: var(--color4, #000)"
                d="M12.532 1.518c-1.73 1.001-2.666 1.584-2.733 1.703-0.12 0.211-0.077 0.429 0.156 0.8l0.166 0.264 2.955-1.706c1.625-0.938 2.984-1.736 3.020-1.772 0.076-0.076-0.104-0.459-0.316-0.671-0.297-0.297-0.479-0.22-3.248 1.382zM13.501 3.193c-0.954 0.552-1.735 1.025-1.736 1.052-0.001 0.042 3.408 5.976 3.468 6.037 0.016 0.016 3.552-2.006 3.593-2.055 0.006-0.006-0.232-0.423-0.527-0.925s-0.538-0.97-0.54-1.040c-0.002-0.069 0.116-0.234 0.26-0.365 0.604-0.549 0.632-1.209 0.075-1.729-0.226-0.211-0.811-0.291-1.14-0.155-0.4 0.166-0.512 0.073-1.067-0.887-0.284-0.491-0.547-0.903-0.585-0.914s-0.849 0.431-1.803 0.982zM7.46 9.562c-2.709 1.402-4.986 2.601-5.060 2.665-0.229 0.196-0.164 0.523 0.244 1.235 0.452 0.789 0.579 0.928 0.853 0.928 0.15 0 1.545-0.857 4.951-3.039 2.608-1.671 4.748-3.044 4.754-3.051 0.024-0.025-0.738-1.291-0.776-1.289-0.022 0.001-2.256 1.149-4.965 2.551zM26.070 7.954c-1.439 0.465-2.214 2.653-1.517 4.28 0.309 0.72 0.941 1.358 1.516 1.531l0.164 0.049 0.001-1.265c0.001-1.393 0.052-1.615 0.377-1.653 0.372-0.043 0.426 0.159 0.426 1.615v1.304l0.164-0.051c0.566-0.175 1.137-0.712 1.442-1.357 0.74-1.564 0.252-3.501-1.078-4.281-0.349-0.205-1.12-0.293-1.496-0.172zM17.428 9.906c-1.648 0.95-3.008 1.737-3.023 1.75s0.061 0.175 0.17 0.36c0.216 0.369 0.449 0.516 0.71 0.449 0.216-0.055 5.153-2.907 5.375-3.105 0.217-0.193 0.211-0.47-0.020-0.864-0.102-0.174-0.193-0.317-0.201-0.317s-1.363 0.777-3.011 1.727zM25.941 15.741v1.206h1.388v-2.411h-1.388v1.206zM1.388 17.636c0 0.017 0.321 0.203 0.712 0.413 1.157 0.62 2.551 1.437 3.496 2.051l0.884 0.574h23.771v-3.069h-14.432c-7.938 0-14.432 0.014-14.432 0.032zM0 19.779l0 1.882 1.078 0.525c1.891 0.921 3.74 2.1 5.499 3.505 1.731 1.383 3.98 3.73 5.471 5.708l0.454 0.603h2.372c1.304 0 2.372-0.018 2.372-0.041s-0.251-0.356-0.557-0.74c-4.3-5.401-9.318-9.56-15.313-12.692-0.663-0.346-1.244-0.63-1.29-0.63-0.062 0-0.084 0.505-0.084 1.882zM7.6 21.435c0 0.017 0.238 0.204 0.53 0.415 0.626 0.454 2.089 1.626 2.759 2.21l0.474 0.413h18.89v-3.069h-11.326c-6.229 0-11.326 0.014-11.326 0.031zM0 24.39v1.886l0.639 0.275c2.294 0.988 4.279 2.678 5.733 4.882l0.374 0.566h4.809l-0.145-0.201c-1.302-1.799-3.511-4.084-5.425-5.614-1.662-1.328-3.847-2.706-5.448-3.436l-0.537-0.245v1.886zM12.972 25.991c0.443 0.431 1.13 1.121 1.527 1.533l0.721 0.749h15.032v-3.069l-18.086 0.003 0.806 0.784zM0 29.554v2.446h5.855l-0.367-0.53c-0.495-0.715-1.314-1.632-1.98-2.217-0.921-0.811-2.366-1.715-3.307-2.069l-0.201-0.076v2.446zM16.072 29.278c0.513 0.614 2.004 2.475 2.079 2.594s0.445 0.128 6.091 0.128h6.011v-2.996h-14.41l0.229 0.274z"></path>
        </symbol>

        <symbol id="icon-judge" viewBox="0 0 32 32">
            <path
                d="M16.875 0.177l0.354-0.177 13.68 0.035 0.326 0.202c0.202 0.125 0.403 0.326 0.528 0.528l0.202 0.326 0.019 4.672c0.017 4.211 0.008 4.7-0.092 4.962-0.139 0.367-0.442 0.714-0.768 0.88-0.244 0.124-0.43 0.129-4.64 0.129h-4.386l-1.599 1.6c-1.405 1.406-1.624 1.6-1.807 1.6-0.115 0-0.287-0.062-0.384-0.138l-0.176-0.138v-2.909l-0.522-0.024c-0.655-0.030-1.069-0.256-1.376-0.753l-0.202-0.326-0.020-4.638c-0.013-3.079 0.003-4.719 0.049-4.878 0.115-0.394 0.427-0.76 0.813-0.953zM23.748 2.202c-0.186 0.078-0.282 0.317-0.282 0.704v0.296h-1.363c-1.463 0-1.635 0.031-1.769 0.324-0.208 0.454-1.134 2.821-1.134 2.898 0 0.242 0.23 0.807 0.413 1.016 0.318 0.362 0.677 0.519 1.187 0.519s0.869-0.157 1.187-0.519c0.179-0.204 0.413-0.772 0.413-1.003 0-0.040-0.161-0.478-0.358-0.971s-0.379-0.965-0.404-1.048l-0.046-0.15h1.876v4.254l-0.673 0.023c-0.612 0.021-0.684 0.037-0.8 0.18-0.163 0.201-0.163 0.484 0 0.685 0.127 0.157 0.13 0.157 1.878 0.177 1.197 0.014 1.809-0.004 1.933-0.056 0.387-0.16 0.4-0.749 0.020-0.922-0.091-0.041-0.419-0.075-0.729-0.075h-0.564v-4.266h0.933c0.513 0 0.933 0.015 0.933 0.032s-0.181 0.487-0.403 1.043c-0.39 0.977-0.401 1.021-0.333 1.338 0.177 0.827 0.72 1.278 1.537 1.278s1.359-0.451 1.537-1.278c0.069-0.321 0.060-0.352-0.46-1.653-0.68-1.7-0.663-1.665-0.854-1.752-0.102-0.046-0.666-0.074-1.518-0.074h-1.355l-0.029-0.402c-0.016-0.226-0.071-0.444-0.126-0.498-0.128-0.128-0.457-0.178-0.646-0.1zM20.524 5.803l-0.241 0.599h1.037l-0.239-0.6c-0.131-0.33-0.256-0.599-0.277-0.599s-0.147 0.271-0.28 0.6zM26.948 5.754c-0.119 0.303-0.217 0.573-0.217 0.6s0.21 0.048 0.467 0.048 0.467-0.022 0.467-0.048c0-0.085-0.432-1.151-0.467-1.151-0.018 0-0.131 0.248-0.25 0.552zM9.298 8.127c-0.715 0.257-1.307 0.793-1.62 1.463-0.157 0.337-0.179 0.475-0.201 1.264l-0.024 0.886 5.513-0.039 0.438-0.214c0.536-0.262 1.065-0.8 1.313-1.335 0.151-0.326 0.182-0.495 0.203-1.123 0.038-1.108 0.258-1.027-2.814-1.024-2.217 0.002-2.509 0.015-2.809 0.123zM13.366 12.6c-0.462 0.164-0.491 0.165-3.183 0.188l-2.717 0.023v0.215c0 0.346 0.189 0.974 0.41 1.36 1.038 1.814 3.526 2.168 5.020 0.716 0.636-0.618 0.993-1.454 0.956-2.239l-0.020-0.427-0.467 0.165zM4.459 12.693c-0.443 0.158-1.053 0.712-1.29 1.171-0.159 0.308-0.201 0.816-0.098 1.186 0.122 0.438 0.643 0.959 1.081 1.081 0.372 0.104 0.878 0.061 1.189-0.1 0.31-0.16 0.845-0.68 1.037-1.008 0.379-0.646 0.254-1.454-0.305-1.977-0.457-0.427-1.045-0.556-1.613-0.353zM2.046 16.401c-0.36 0.401-0.606 0.807-0.797 1.319-0.131 0.352-0.144 0.537-0.167 2.53l-0.025 2.15h1.076l0.001-1.783c0.001-2.456 0.059-2.736 0.724-3.491l0.272-0.308-0.375-0.375c-0.206-0.206-0.383-0.375-0.392-0.375s-0.152 0.15-0.317 0.334zM6.338 16.911c-0.645 0.314-1.36 1.014-1.662 1.628-0.36 0.732-0.407 1.020-0.408 2.511l-0.001 1.35h12.799v-1.319c0-1.462-0.056-1.81-0.412-2.547-0.502-1.040-2.072-2.112-2.645-1.805-0.063 0.034-0.624 0.722-1.245 1.53s-1.15 1.448-1.173 1.422c-0.023-0.026-0.14-0.497-0.258-1.047s-0.231-1.025-0.248-1.055-0.119 0.028-0.225 0.129l-0.193 0.185-0.193-0.185c-0.106-0.102-0.207-0.16-0.225-0.129s-0.129 0.505-0.248 1.055c-0.119 0.55-0.235 1.020-0.258 1.045s-0.551-0.615-1.174-1.422c-0.622-0.807-1.183-1.494-1.246-1.528-0.209-0.112-0.485-0.061-0.985 0.182zM0.138 23.643c-0.129 0.164-0.138 0.262-0.138 1.436 0 1.25 0.001 1.262 0.164 1.424l0.164 0.164h20.678l0.164-0.164c0.163-0.162 0.164-0.173 0.164-1.455 0-1.264-0.003-1.294-0.154-1.436l-0.154-0.145h-20.747l-0.138 0.176zM1.067 29.703v1.97l0.327 0.327h18.544l0.327-0.327v-3.939h-19.199v1.97z"></path>
        </symbol>

        <symbol id="icon-logo" viewBox="0 0 48 32">
            <path fill="#ae0000" style="fill: var(--color5, #ae0000)"
                d="M0 0.763c0 0.053 0.855 1.29 1.899 2.749l1.899 2.653h8.036c9.47 0 9.293-0.024 10.84 1.489 0.785 0.767 1.039 1.154 1.269 1.929 0.729 2.451-0.589 4.928-3.107 5.841-0.451 0.163-0.841 0.311-0.868 0.329-0.103 0.067 3.094 4.443 3.303 4.521 0.382 0.144 1.97-0.819 3.172-1.925 1.372-1.261 2.155-2.461 2.786-4.271 0.395-1.132 0.464-1.605 0.464-3.164 0-1.556-0.070-2.034-0.463-3.166-1.202-3.462-4.118-6.038-7.715-6.816-1.045-0.226-2.723-0.265-11.372-0.265-5.58 0-10.146 0.043-10.146 0.097zM40.536 1.798c-3.059 4.402-16.246 22.86-16.328 22.855-0.056-0.004-1.214-1.591-2.572-3.529s-2.796-3.959-3.194-4.492l-0.724-0.97h-3.408c-1.874 0-3.408 0.062-3.408 0.139s0.786 1.223 1.746 2.548c0.96 1.325 3.468 4.789 5.571 7.697l3.825 5.287 4.433-0.093 3.444-4.832c1.894-2.657 4.182-5.882 5.084-7.165s3.001-4.245 4.665-6.581c1.663-2.337 4.198-5.898 5.633-7.914s2.646-3.759 2.691-3.874c0.064-0.162-0.661-0.207-3.3-0.201l-3.383 0.007-0.777 1.118zM3.619 19.536l0.044 11.705 5.537 0.092v-10.172h1.704c0.937 0 1.704-0.046 1.704-0.101s-0.575-0.915-1.279-1.91c-0.703-0.995-1.47-2.084-1.704-2.421-0.425-0.612-0.425-0.614-0.425-4.754v-4.142h-5.624l0.044 11.705z"></path>
        </symbol>

        <symbol id="icon-military-case" viewBox="0 0 32 32">
            <path fill="#837676" style="fill: var(--color2, #837676)" d="M0 0h32v32h-32v-32z"></path>
            <path fill="#fff" style="fill: var(--color1, #fff)"
                d="M-803.2-2550.4h1228.8v4731.52h-1228.8v-4731.52z"></path>
            <path fill="#f5f5f5" style="fill: var(--color3, #f5f5f5)"
                d="M-51.84-29.44h247.040v90.24h-247.040v-90.24z"></path>
            <path fill="#000" style="fill: var(--color4, #000)"
                d="M14.22 0.074c0.788-0.128 2.528-0.084 3.312 0.083 2.134 0.456 3.528 1.784 4.304 4.099 0.206 0.614 0.5 1.831 0.501 2.071l0.001 0.143h-13.433l0-0.143c0-0.456 0.604-2.408 0.969-3.131 0.911-1.809 2.272-2.786 4.347-3.123zM15.312 2.933c-0.475 0.173-0.742 0.543-0.742 1.027 0 0.628 0.451 1.076 1.082 1.076 0.438 0 0.742-0.174 0.949-0.542 0.475-0.846-0.387-1.891-1.289-1.562zM9.031 7.162c0-0.030 2.979-0.054 6.621-0.054s6.621 0.024 6.621 0.054c0 0.122-0.4 0.594-0.712 0.84-0.821 0.649-2.262 1.138-3.904 1.326-3.227 0.368-6.456-0.173-7.915-1.326-0.312-0.246-0.712-0.719-0.712-0.84zM9.082 8.508c-0.015-0.105-0.019-0.191-0.008-0.191s0.214 0.133 0.451 0.296c1.4 0.965 3.433 1.443 6.128 1.443 1.348 0 2.14-0.070 3.183-0.282 1.168-0.237 2.288-0.692 2.974-1.208 0.182-0.137 0.347-0.25 0.366-0.25s0.035 0.082 0.035 0.183c0 0.164 0.026 0.187 0.25 0.223 0.449 0.072 0.686 0.571 0.618 1.304-0.090 0.971-0.762 1.766-1.387 1.641-0.169-0.034-0.196-0.016-0.259 0.164-0.148 0.423-0.75 1.572-1.114 2.123-0.756 1.145-1.763 2.119-2.687 2.598-1.853 0.961-3.758 0.556-5.477-1.163-0.852-0.852-1.713-2.17-2.199-3.364l-0.148-0.364-0.308-0c-0.377-0-0.627-0.162-0.91-0.588-0.528-0.798-0.498-1.988 0.058-2.276 0.103-0.053 0.249-0.097 0.324-0.097 0.117 0 0.133-0.029 0.11-0.191zM10.686 16.638l0.542-0.56 0.159 0.186c0.816 0.952 4.236 4.786 4.268 4.786 0.023 0 1.027-1.117 2.231-2.482l2.188-2.482 0.404 0.398c0.222 0.219 0.576 0.59 0.787 0.826l0.383 0.429-1.603 2.484c-0.882 1.366-1.676 2.541-1.765 2.611-0.181 0.142-0.464 0.165-0.674 0.054-0.076-0.040-0.529-0.441-1.007-0.891s-0.902-0.818-0.943-0.818c-0.041 0-0.506 0.387-1.032 0.86s-1.026 0.877-1.11 0.898c-0.19 0.048-0.433-0.010-0.555-0.131-0.051-0.051-0.815-1.213-1.7-2.583l-1.607-2.491 0.246-0.266c0.135-0.146 0.49-0.518 0.788-0.826zM12.607 16.705c-0.051-0.070 0.063-0.022 0.282 0.118 1.789 1.145 3.875 1.147 5.55 0.006 0.184-0.126 0.299-0.178 0.255-0.118-0.172 0.236-3.001 3.384-3.041 3.384s-2.872-3.151-3.045-3.39zM6.835 17.912c0.248-0.062 0.319-0.006 0.679 0.528 0.351 0.523 0.422 0.713 0.323 0.869-0.038 0.060-4.033 1.942-4.511 2.125-0.203 0.078-0.343-0.054-0.78-0.728-0.413-0.638-0.457-0.787-0.278-0.945 0.195-0.172 1.17-0.668 1.894-0.963 0.575-0.234 2.148-0.756 2.674-0.887zM8.315 17.913c0.694-0.073 0.485-0.287 2.012 2.070 1.981 3.059 2.194 3.36 2.482 3.506 0.56 0.286 1.165 0.116 1.758-0.493 0.156-0.16 0.307-0.292 0.334-0.292s0.050 2.078 0.050 4.617v4.617l-13.92-0.034-0.312-0.193c-0.193-0.119-0.385-0.311-0.504-0.504l-0.193-0.312-0.017-3.678c-0.020-4.167-0.014-4.236 0.441-5.14 0.185-0.367 0.415-0.689 0.74-1.035 0.26-0.276 0.491-0.501 0.514-0.499s0.212 0.271 0.42 0.599c0.435 0.683 0.734 0.925 1.143 0.925 0.196 0 0.793-0.247 2.55-1.056 1.262-0.581 2.358-1.115 2.436-1.187 0.204-0.189 0.361-0.639 0.311-0.891-0.023-0.114-0.141-0.358-0.263-0.541s-0.221-0.361-0.221-0.394c0-0.033 0.107-0.072 0.239-0.086zM21.704 18.933c0.623-0.956 0.713-1.066 0.871-1.066 0.3 0.001 0.653 0.077 0.653 0.139 0 0.033-0.083 0.181-0.185 0.329-0.379 0.551-0.388 1.111-0.023 1.453 0.282 0.265 4.568 2.219 4.951 2.258 0.46 0.047 0.728-0.151 1.207-0.889 0.209-0.322 0.386-0.595 0.394-0.608s0.105 0.041 0.215 0.119c0.335 0.238 0.885 0.957 1.145 1.495 0.439 0.909 0.452 1.058 0.431 5.157-0.020 4.042 0.008 3.786-0.472 4.252-0.463 0.45-0.053 0.427-7.643 0.427h-6.832v-4.647c0-2.556 0.023-4.647 0.050-4.647s0.178 0.131 0.334 0.292c0.62 0.636 1.202 0.788 1.788 0.464 0.245-0.135 0.406-0.352 1.349-1.807 0.589-0.91 1.384-2.134 1.766-2.72zM24.067 17.948c0.037-0.045 0.086-0.082 0.108-0.081 0.141 0.001 1.617 0.412 2.173 0.605 1.207 0.42 2.56 1.124 2.684 1.396 0.078 0.172 0.002 0.343-0.464 1.035-0.341 0.506-0.462 0.604-0.656 0.53-0.425-0.162-4.352-2.007-4.444-2.088-0.061-0.054-0.111-0.149-0.111-0.213 0-0.098 0.498-0.926 0.712-1.184zM15.412 22.55c0.078-0.054 0.186-0.099 0.24-0.099 0.192 0 0.382 0.192 0.382 0.386 0 0.209-0.194 0.442-0.368 0.442-0.367 0-0.549-0.522-0.255-0.729zM15.376 24.54c0.223-0.246 0.659-0.070 0.659 0.266 0 0.213-0.196 0.398-0.423 0.398-0.309 0-0.458-0.418-0.236-0.663zM3.111 28.381v2.365l0.622-0.604c0.754-0.732 0.998-0.848 1.689-0.803 0.523 0.034 1.008 0.224 1.512 0.594l0.308 0.226 0.313-0.225c0.172-0.124 0.482-0.304 0.688-0.401 0.323-0.151 0.456-0.176 0.948-0.176 0.724 0 0.83 0.055 1.639 0.848l0.621 0.608v-4.798h-8.34v2.365zM19.981 28.381v2.365l0.626-0.607c0.778-0.755 0.927-0.838 1.507-0.836 0.524 0.002 1.009 0.179 1.616 0.591l0.39 0.265 0.27-0.185c0.706-0.484 1.541-0.767 2.011-0.681 0.368 0.067 0.699 0.299 1.313 0.92 0.314 0.318 0.594 0.577 0.621 0.577s0.049-1.074 0.049-2.387v-2.387h-8.403v2.365zM15.376 26.514c0.131-0.145 0.388-0.15 0.542-0.011 0.242 0.219 0.072 0.659-0.254 0.659-0.341 0-0.516-0.395-0.288-0.648zM3.62 27.931v-1.279h7.067v1.273c0 0.7-0.015 1.273-0.033 1.273s-0.14-0.071-0.271-0.157c-0.746-0.493-1.94-0.428-2.891 0.157l-0.315 0.194-0.183-0.13c-0.101-0.072-0.378-0.223-0.617-0.336-0.403-0.191-0.481-0.205-1.104-0.205-0.638 0-0.691 0.010-1.114 0.223-0.244 0.123-0.466 0.232-0.492 0.244s-0.048-0.554-0.048-1.257zM20.554 27.925v-1.273h7.13v1.273c0 0.7-0.011 1.273-0.025 1.273s-0.184-0.084-0.378-0.186c-0.837-0.441-1.634-0.417-2.606 0.078l-0.561 0.286-0.363-0.219c-0.956-0.576-2.124-0.626-2.883-0.123-0.136 0.090-0.262 0.164-0.28 0.164s-0.033-0.573-0.033-1.273zM7.017 27.544c-0.337 0.134-0.443 0.582-0.194 0.817 0.462 0.434 1.152-0.182 0.728-0.649-0.17-0.187-0.347-0.243-0.534-0.168zM23.951 27.543c-0.178 0.072-0.341 0.309-0.341 0.495 0 0.081 0.070 0.218 0.156 0.304 0.325 0.325 0.862 0.112 0.862-0.341 0-0.193-0.181-0.457-0.313-0.457-0.032 0-0.097-0.013-0.143-0.028s-0.146-0.003-0.221 0.027zM15.525 28.352c-0.144 0.050-0.255 0.216-0.255 0.381 0 0.181 0.21 0.402 0.382 0.402s0.382-0.221 0.382-0.402c0-0.265-0.268-0.466-0.509-0.381zM15.408 30.383c-0.2 0.14-0.166 0.446 0.069 0.621l0.175 0.13 0.175-0.13c0.235-0.175 0.269-0.48 0.069-0.621-0.080-0.056-0.19-0.102-0.244-0.102s-0.164 0.046-0.244 0.102z"></path>
        </symbol>

        <symbol id="icon-mkey-logo" viewBox="0 0 76 32">
            <path fill="#837676" style="fill: var(--color2, #837676)"
                d="M0 0h75.636v32h-75.636v-32z"></path>
            <path fill="#fff" style="fill: var(--color1, #fff)"
                d="M-2192-10644.364h2792.727v10753.455h-2792.727v-10753.455z"></path>
            <path fill="#1b1b1b" style="fill: var(--color6, #1b1b1b)"
                d="M-2192-71.273h2792.727v180.364h-2792.727v-180.364z"></path>
            <path fill="#fff" style="fill: var(--color1, #fff)"
                d="M23.69 13.844c-0.346-2.124-2.049-3.87-5.050-3.87-1.385 0-2.395 0.291-3.29 0.902l-1.558 2.095c-0.635-1.717-2.222-2.997-4.79-2.997-1.414 0-2.395 0.291-3.318 0.902l-1.154 1.92v-2.415h-4.53v15.509h4.53v-8.060c0-3.171 0.837-4.714 2.568-4.714 1.472 0 2.251 0.873 2.453 2.415 0.087 0.786 0.115 1.629 0.115 2.357v8.002h4.502v-8.060c0-3.171 0.866-4.714 2.597-4.714 1.443 0 2.251 0.873 2.424 2.415 0.087 0.786 0.115 1.629 0.115 2.357v8.002h4.53v-9.166c0-1.251-0.029-2.095-0.144-2.88z"></path>
            <path fill="#fff" style="fill: var(--color1, #fff)"
                d="M32.791 19.954l4.473 5.936h5.627l-6.752-8.351 6.666-7.158h-5.367l-5.829 6.809v-12.686h-4.53v21.386h4.53v-4.626l1.183-1.309zM58.33 17.859c0-4.132-2.539-7.885-7.445-7.885-4.877 0-7.964 3.55-7.964 8.205 0 5.47 3.376 8.118 7.676 8.118 3.751 0 6.637-1.891 7.474-5.47h-4.473c-0.26 1.455-1.327 2.328-2.914 2.328-1.703 0-2.972-0.873-3.232-3.841h10.792c0.058-0.553 0.087-1.047 0.087-1.455zM50.683 13.116c1.674 0 2.684 1.135 2.943 3.317h-6.060c0.375-2.299 1.501-3.317 3.117-3.317zM75.455 10.381h-4.934l-3.492 11.988-3.52-11.988h-5.050l6.319 16.207-0.202 0.495c-0.577 1.338-1.443 1.804-2.741 1.804-0.462 0-0.866 0-1.27-0.058v3.055c0.635 0.087 1.183 0.116 1.962 0.116 3.347 0 5.021-1.28 6.781-5.79l6.146-15.829z"></path>
            <path fill="#fff" style="fill: var(--color1, #fff)"
                d="M54.201 3.88c-0.144-0.885-0.794-1.564-1.936-1.564-0.565 0-1.022 0.109-1.347 0.376l-0.565 0.824c-0.24-0.703-0.866-1.2-1.84-1.2-0.565 0-1.022 0.109-1.347 0.376l-0.409 0.727v-0.934h-1.034v6.426h1.034v-3.176c0-1.952 0.589-2.594 1.395-2.594 0.721 0 1.178 0.352 1.274 1.079 0.036 0.327 0.048 0.679 0.048 1.249v3.443h1.034v-3.176c0-1.952 0.589-2.594 1.395-2.594 0.721 0 1.178 0.352 1.275 1.079 0.036 0.327 0.048 0.679 0.048 1.249v3.443h1.034v-3.928c0-0.521-0.012-0.776-0.060-1.103zM60.76 5.516c0-1.879-0.974-3.201-2.729-3.201-1.743 0-3.030 1.321-3.030 3.407 0 2.267 1.238 3.358 2.898 3.358 1.311 0 2.525-0.691 2.777-2.243h-1.082c-0.144 0.921-0.817 1.443-1.647 1.443-0.938 0-1.731-0.57-1.828-2.267h4.617c0.024-0.23 0.024-0.4 0.024-0.497zM58.006 3.116c1.046 0 1.611 0.764 1.707 2.097h-3.583c0.12-1.37 0.866-2.097 1.876-2.097zM67.214 0h-1.034v3.37l-0.421-0.63c-0.325-0.267-0.998-0.424-1.527-0.424-1.647 0-3.114 1.103-3.114 3.479 0 1.879 1.034 3.285 2.898 3.285 0.649 0 1.322-0.206 1.683-0.509l0.481-0.691v1.030h1.034v-8.911zM64.172 8.28c-1.274 0-1.924-1.152-1.924-2.607 0-1.685 0.866-2.558 1.984-2.558 0.914 0 1.948 0.63 1.948 2.291v0.352c0 1.843-0.95 2.522-2.008 2.522zM69.081 0.376c-0.373 0-0.661 0.291-0.661 0.667s0.289 0.667 0.661 0.667c0.373 0 0.661-0.291 0.661-0.667s-0.289-0.667-0.661-0.667zM69.598 8.911v-6.426h-1.034v6.426h1.034zM74.603 8.911h1.034c-0.096-0.715-0.12-1.152-0.12-1.637v-2.413c0-0.279-0.012-0.594-0.036-0.849-0.108-1.055-0.745-1.697-2.26-1.697-1.407 0-2.356 0.788-2.453 2.158h1.082c0.072-0.885 0.505-1.358 1.371-1.358 0.854 0 1.19 0.388 1.238 0.982 0.024 0.242 0.024 0.497 0.024 0.776v0.17h-0.409c-2.501 0-3.583 0.752-3.583 2.207 0 1.188 0.902 1.831 2.056 1.831 0.613 0 1.166-0.097 1.599-0.4l0.349-0.691 0.108 0.921zM72.895 8.28c-0.782 0-1.274-0.339-1.274-1.115 0-1.103 1.106-1.479 2.862-1.346v0.655c0 1.164-0.625 1.806-1.587 1.806z"></path>
        </symbol>

        <symbol id="icon-money" viewBox="0 0 33 32">
            <path fill="#837676" style="fill: var(--color2, #837676)" d="M0 0h32.64v32h-32.64v-32z"></path>
            <path fill="#fff" style="fill: var(--color1, #fff)"
                d="M-282.88-2559.36h1228.8v4731.52h-1228.8v-4731.52z"></path>
            <path fill="#f5f5f5" style="fill: var(--color3, #f5f5f5)"
                d="M-52.48-38.4h247.68v90.24h-247.68v-90.24z"></path>
            <path fill="#000" style="fill: var(--color4, #000)"
                d="M11.195 0.156c0.13-0.186 0.461-0.21 0.625-0.046 0.088 0.088 0.111 0.278 0.111 0.916v0.805h2.048c1.306 0 2.098 0.027 2.187 0.075 0.082 0.044 0.487 0.773 0.982 1.766 0.789 1.586 0.842 1.718 0.842 2.107 0 0.604-0.213 1.111-0.629 1.501-0.459 0.429-0.776 0.559-1.381 0.566-0.405 0.004-0.568-0.030-0.893-0.189-0.725-0.355-1.133-1.004-1.142-1.818-0.005-0.451 0.017-0.511 0.647-1.783 0.359-0.724 0.652-1.331 0.652-1.349s-0.737-0.024-1.638-0.014l-1.638 0.019-0.018 3.4-0.018 3.4h0.647c0.503 0 0.675 0.026 0.776 0.117 0.16 0.145 0.166 0.43 0.012 0.6-0.107 0.118-0.258 0.129-1.814 0.128-0.934-0.001-1.733-0.024-1.775-0.053-0.259-0.173-0.255-0.646 0.007-0.747 0.064-0.025 0.384-0.045 0.71-0.045h0.593v-6.834h-3.309l1.35 2.713-0.031 0.528c-0.035 0.607-0.186 0.957-0.583 1.352-1.013 1.009-2.712 0.678-3.296-0.642-0.093-0.211-0.142-0.48-0.145-0.795-0.004-0.468 0.009-0.502 0.791-2.080 0.438-0.882 0.862-1.676 0.943-1.763 0.146-0.157 0.161-0.159 2.213-0.159h2.066v-0.759c0-0.573 0.027-0.798 0.11-0.916zM6.653 4.111c-0.236 0.498-0.429 0.918-0.429 0.934s0.396 0.028 0.881 0.028c0.484 0 0.879-0.024 0.877-0.053s-0.205-0.449-0.451-0.934l-0.448-0.881-0.429 0.906zM15.497 4.139l-0.467 0.933h0.916c0.504 0 0.915-0.024 0.913-0.053s-0.204-0.449-0.449-0.933l-0.446-0.88-0.467 0.932zM20.854 5.125c0.018-0.029 0.134-0.053 0.258-0.053 0.217 0 0.369 0.079 0.894 0.465 0.212 0.155 0.303 0.177 0.643 0.154 0.224-0.016 0.469-0.081 0.564-0.149 0.092-0.067 0.275-0.2 0.407-0.296 0.346-0.252 0.633-0.229 1.003 0.081 0.366 0.306 0.544 0.38 0.915 0.38 0.318 0 0.625-0.138 0.963-0.433 0.236-0.206 0.663-0.279 0.755-0.131 0.036 0.058-0.229 1.013-0.679 2.448l-0.072 0.229h-4.887l-0.398-1.321c-0.219-0.726-0.383-1.345-0.365-1.374zM21.035 8.775c0.136-0.095 0.544-0.11 3.033-0.11h2.876l0.177 0.177c0.129 0.129 0.165 0.22 0.131 0.335-0.099 0.334-0.096 0.333-3.193 0.333-2.621 0-2.936-0.012-3.051-0.117-0.18-0.163-0.166-0.484 0.028-0.619zM19.949 12.738l1.529-2.375 5.152-0.007 1.539 2.377c0.847 1.308 1.613 2.536 1.703 2.73 0.409 0.88 0.481 2.133 0.173 3.014-0.198 0.568-0.566 1.238-0.703 1.279-0.502 0.151-7.582 2.012-7.644 2.009-0.044-0.002-0.199-0.16-0.344-0.351-0.328-0.431-0.805-0.708-1.573-0.915-0.527-0.142-0.62-0.192-0.835-0.454-0.576-0.703-0.973-1.643-1.058-2.504-0.057-0.581 0.096-1.478 0.346-2.023 0.102-0.224 0.874-1.475 1.715-2.781zM23.767 12.54c-0.11 0.11-0.141 0.235-0.141 0.563 0 0.411-0.006 0.424-0.234 0.52-0.617 0.258-1.015 0.883-0.946 1.488 0.061 0.54 0.293 0.757 1.358 1.269 0.525 0.252 0.975 0.514 1.016 0.592 0.098 0.184-0.001 0.439-0.247 0.632-0.388 0.305-1.175 0.105-1.267-0.323-0.108-0.505-0.341-0.687-0.659-0.517-0.505 0.27-0.007 1.437 0.726 1.702 0.252 0.091 0.253 0.095 0.253 0.503 0 0.346 0.028 0.44 0.177 0.589 0.129 0.129 0.22 0.165 0.335 0.131 0.254-0.075 0.333-0.243 0.333-0.701 0-0.428 0.001-0.431 0.247-0.52 0.577-0.209 0.951-0.741 0.951-1.355 0-0.657-0.274-0.928-1.48-1.469-0.787-0.352-0.916-0.453-0.916-0.714 0-0.239 0.327-0.535 0.66-0.597 0.458-0.086 0.96 0.293 0.96 0.725 0 0.192 0.14 0.299 0.393 0.299 0.314 0 0.407-0.143 0.366-0.563-0.047-0.486-0.324-0.866-0.804-1.101l-0.378-0.185v-0.439c0-0.336-0.030-0.466-0.129-0.555-0.173-0.157-0.404-0.147-0.576 0.024zM10.835 18.775c-0.195 0.053-1.584 0.692-3.086 1.421-2.31 1.121-2.726 1.345-2.697 1.455 0.084 0.323 2.834 6.668 2.89 6.669 0.035 0.001 0.522-0.22 1.084-0.492 1.189-0.574 1.689-0.699 2.304-0.576 0.219 0.044 1.546 0.448 2.948 0.898 2.266 0.727 2.62 0.822 3.183 0.854 0.428 0.024 0.794 0.001 1.127-0.071 0.68-0.147 12.259-4.576 12.611-4.823 0.864-0.607 1.282-1.902 0.88-2.731-0.309-0.638-1.127-1.090-1.785-0.987-0.161 0.025-2.1 0.528-4.309 1.117l-4.016 1.071-0.042 0.563c-0.064 0.853-0.389 1.446-1.084 1.976-0.307 0.234-1.004 0.454-1.439 0.454-0.208 0-1.519-0.326-3.497-0.871-2.819-0.776-3.179-0.891-3.302-1.055-0.114-0.153-0.124-0.214-0.057-0.36 0.044-0.097 0.155-0.195 0.246-0.218 0.103-0.026 1.328 0.279 3.261 0.813 2.64 0.729 3.154 0.851 3.495 0.828 0.53-0.035 1.001-0.324 1.289-0.789 0.192-0.31 0.213-0.403 0.213-0.919 0-0.507-0.023-0.608-0.191-0.863-0.375-0.567-0.506-0.623-3.072-1.321-1.305-0.355-2.453-0.688-2.55-0.74s-0.382-0.253-0.634-0.447c-0.834-0.641-1.793-0.967-2.823-0.958-0.327 0.003-0.754 0.048-0.95 0.101zM1.538 20.636c-1.342 0.588-1.538 0.732-1.538 1.132 0 0.125 0.878 2.258 2.108 5.12 1.588 3.696 2.149 4.933 2.276 5.016 0.284 0.187 0.565 0.124 1.805-0.404 1.287-0.548 1.585-0.76 1.585-1.13 0-0.277-4.11-9.854-4.319-10.062-0.315-0.315-0.535-0.277-1.917 0.328z"></path>
        </symbol>

        <symbol id="icon-paper" viewBox="0 0 26 32">
            <path fill="#837676" style="fill: var(--color2, #837676)" d="M0 0h25.6v32h-25.6v-32z"></path>
            <path fill="#fff" style="fill: var(--color1, #fff)"
                d="M-789.12-2447.36h1228.8v4731.52h-1228.8v-4731.52z"></path>
            <path fill="#f5f5f5" style="fill: var(--color3, #f5f5f5)"
                d="M-37.76-29.44h247.68v90.24h-247.68v-90.24z"></path>
            <path fill="#000" style="fill: var(--color4, #000)"
                d="M2.291 0.096c0.148-0.080 1.468-0.093 10.175-0.095 10.955-0.003 10.24-0.026 10.993 0.355 0.388 0.196 0.951 0.762 1.174 1.178 0.382 0.714 0.361 0.055 0.361 11.637 0 11.758 0.034 10.867-0.417 11.055-0.274 0.115-0.521 0.066-0.716-0.142l-0.149-0.158-0.031-10.698-0.031-10.699-0.146-0.297c-0.080-0.163-0.262-0.396-0.404-0.517-0.503-0.43 0.175-0.405-10.811-0.405h-9.931l-0.183-0.183c-0.143-0.143-0.183-0.239-0.183-0.442 0-0.318 0.077-0.471 0.298-0.591zM0.688 4.493c0.322-0.111 0.721-0.116 9.898-0.102 10.602 0.016 9.754-0.022 9.937 0.436 0.083 0.208 0.095 1.419 0.095 9.983v9.746l-2.766 0.019c-2.71 0.018-2.773 0.021-3.117 0.161-0.469 0.19-0.991 0.571-1.206 0.881-0.343 0.496-0.344 0.501-0.347 3.556l-0.003 2.828-12.032-0.001-0.315-0.147c-0.365-0.17-0.6-0.424-0.743-0.803-0.092-0.245-0.1-1.403-0.084-13.189l0.017-12.921 0.165-0.165c0.091-0.091 0.316-0.217 0.5-0.281zM2.747 8.795c-0.247 0.046-0.431 0.201-0.504 0.422-0.091 0.276-0.027 0.499 0.199 0.689 0.182 0.153 0.207 0.156 1.24 0.156 1.148 0 1.325-0.039 1.472-0.322 0.204-0.394 0.026-0.808-0.398-0.926-0.225-0.063-1.703-0.077-2.008-0.019zM7.107 8.793c-0.201 0.032-0.465 0.281-0.502 0.474-0.043 0.227 0.065 0.529 0.241 0.666 0.163 0.128 0.205 0.129 5.442 0.129h5.278l0.183-0.183c0.146-0.146 0.183-0.237 0.183-0.457 0-0.225-0.035-0.308-0.192-0.458l-0.192-0.184-5.137-0.007c-2.825-0.004-5.212 0.005-5.304 0.019zM2.438 13.318c-0.315 0.294-0.315 0.695 0.001 0.961 0.185 0.156 0.202 0.158 1.294 0.158 1.214 0 1.301-0.022 1.445-0.372 0.108-0.26 0.034-0.594-0.166-0.751-0.15-0.118-0.249-0.128-1.298-0.128-1.067 0-1.145 0.008-1.277 0.131zM6.81 13.349c-0.162 0.136-0.192 0.206-0.192 0.442 0 0.227 0.035 0.316 0.183 0.463l0.183 0.183h10.582l0.183-0.183c0.257-0.257 0.257-0.627 0-0.885l-0.183-0.183h-10.563l-0.192 0.162zM2.439 17.72c-0.316 0.266-0.317 0.667-0.001 0.961 0.132 0.123 0.21 0.131 1.277 0.131 1.049 0 1.148-0.010 1.298-0.128 0.199-0.157 0.273-0.491 0.166-0.751-0.145-0.349-0.231-0.372-1.445-0.372-1.092 0-1.109 0.002-1.294 0.158zM6.8 17.745c-0.148 0.148-0.183 0.237-0.183 0.463 0 0.237 0.030 0.306 0.192 0.442l0.192 0.162h10.563l0.183-0.183c0.257-0.257 0.257-0.627 0-0.885l-0.183-0.183h-10.582l-0.183 0.183zM2.423 22.112c-0.371 0.331-0.235 0.939 0.24 1.071 0.303 0.084 1.79 0.085 2.092 0.001 0.424-0.118 0.602-0.532 0.398-0.926-0.146-0.283-0.323-0.322-1.475-0.322h-1.059l-0.196 0.175zM6.845 22.066c-0.464 0.365-0.247 1.066 0.356 1.152 0.143 0.021 2.529 0.029 5.303 0.019l5.043-0.019 0.192-0.184c0.157-0.15 0.192-0.233 0.192-0.458 0-0.22-0.036-0.311-0.183-0.457l-0.183-0.183h-5.278c-5.237 0-5.279 0.001-5.442 0.129zM15.149 25.951c-0.103 0.037-0.268 0.123-0.366 0.192-0.336 0.235-0.352 0.354-0.352 2.574 0 1.118 0.016 2.033 0.036 2.033 0.040 0 5.339-4.817 5.339-4.853 0-0.059-4.486-0.007-4.656 0.054z"></path>
        </symbol>

        <symbol id="icon-telegram" viewBox="0 0 32 32">
            <path fill="#837676" style="fill: var(--color2, #837676)" d="M0 0h32v32h-32v-32z"></path>
            <path fill="#fff" style="fill: var(--color1, #fff)"
                d="M-480-9046.667h2560v9857.333h-2560v-9857.333z"></path>
            <path fill="#000" style="fill: var(--color4, #000)"
                d="M16 0c-8.837 0-16 7.163-16 16s7.163 16 16 16c8.837 0 16-7.163 16-16s-7.163-16-16-16zM24.316 10.121l-2.842 13.566c-0.034 0.164-0.109 0.317-0.218 0.444s-0.248 0.226-0.405 0.285-0.326 0.079-0.492 0.056c-0.166-0.023-0.324-0.087-0.459-0.186l-4.134-3.054-2.504 2.363c-0.033 0.031-0.071 0.055-0.114 0.071s-0.087 0.023-0.132 0.021-0.089-0.012-0.13-0.031c-0.041-0.019-0.078-0.046-0.108-0.079l-0.054-0.059 0.435-4.211 7.843-7.166c0.039-0.035 0.063-0.084 0.068-0.136s-0.010-0.104-0.042-0.146c-0.032-0.042-0.078-0.070-0.13-0.079s-0.105 0.001-0.149 0.029l-10.030 6.348-4.32-1.451c-0.115-0.039-0.215-0.112-0.287-0.209s-0.111-0.215-0.113-0.336c-0.002-0.121 0.033-0.24 0.101-0.34s0.165-0.177 0.279-0.22l16.901-6.367c0.13-0.049 0.272-0.062 0.409-0.038s0.265 0.085 0.371 0.175c0.106 0.091 0.185 0.208 0.23 0.34s0.053 0.273 0.025 0.41z"></path>
        </symbol>

        <symbol id="icon-transparent-logo" viewBox="0 0 50 32">
            <path
                d="M0 0.101c0 0.055 0.891 1.346 1.979 2.869l1.979 2.768h8.375c9.869 0 9.685-0.025 11.297 1.554 0.818 0.801 1.083 1.204 1.323 2.013 0.759 2.558-0.614 5.142-3.238 6.095-0.47 0.171-0.877 0.325-0.904 0.343-0.107 0.070 3.224 4.636 3.442 4.718 0.399 0.15 2.053-0.855 3.306-2.009 1.43-1.316 2.246-2.568 2.904-4.457 0.412-1.182 0.484-1.675 0.484-3.302 0-1.623-0.073-2.123-0.482-3.303-1.252-3.612-4.292-6.301-8.040-7.112-1.089-0.236-2.837-0.277-11.851-0.277-5.815 0-10.573 0.045-10.573 0.101zM42.246 1.181c-3.188 4.593-16.931 23.854-17.016 23.848-0.058-0.004-1.265-1.661-2.681-3.682s-2.914-4.131-3.329-4.688l-0.754-1.012h-3.551c-1.953 0-3.551 0.065-3.551 0.145s0.819 1.276 1.82 2.659c1.001 1.383 3.614 4.997 5.806 8.032l3.987 5.517 4.619-0.097 3.589-5.042c1.974-2.773 4.359-6.137 5.299-7.476s3.128-4.429 4.861-6.868 4.375-6.155 5.871-8.258c1.495-2.104 2.758-3.923 2.805-4.042 0.067-0.17-0.689-0.216-3.439-0.21l-3.526 0.007-0.809 1.166zM3.772 19.69l0.046 12.214 5.77 0.096v-10.614h1.775c0.977 0 1.775-0.048 1.775-0.106s-0.6-0.955-1.333-1.993c-0.733-1.038-1.532-2.175-1.775-2.526-0.443-0.639-0.443-0.64-0.443-4.961v-4.322h-5.862l0.046 12.214z"></path>
        </symbol>

        <symbol id="icon-two-paper" viewBox="0 0 35 32">
            <path fill="#837676" style="fill: var(--color2, #837676)" d="M0 0h34.56v32h-34.56v-32z"></path>
            <path fill="#fff" style="fill: var(--color1, #fff)"
                d="M-282.24-2653.44h1228.8v4731.52h-1228.8v-4731.52z"></path>
            <path fill="#f5f5f5" style="fill: var(--color3, #f5f5f5)"
                d="M-51.84-29.44h247.68v90.24h-247.68v-90.24z"></path>
            <path fill="#000" style="fill: var(--color4, #000)"
                d="M20.803 9.145l-0.017-9.145h9.163v1.85c0 1.933 0.033 2.172 0.311 2.279 0.061 0.023 0.602 0.042 1.202 0.042 1.068 0 1.095-0.004 1.259-0.168 0.222-0.222 0.222-0.536 0-0.758-0.157-0.157-0.214-0.168-0.889-0.168h-0.721v-2.495l3.077 3.075v14.668l-13.367-0.035-0.017-9.145zM23.713 3.285c-0.174 0.174-0.201 0.244-0.165 0.427 0.090 0.465 0.054 0.459 2.813 0.459 1.365 0 2.532-0.019 2.593-0.042 0.167-0.064 0.32-0.409 0.27-0.608-0.024-0.095-0.121-0.234-0.216-0.308-0.165-0.13-0.283-0.136-2.63-0.136h-2.458l-0.208 0.208zM0 14.017v-9.162h9.162v1.909c0 1.050 0.019 1.959 0.043 2.020 0.095 0.248 0.391 0.311 1.455 0.311 0.98 0 1.034-0.007 1.214-0.162 0.142-0.122 0.188-0.224 0.188-0.411 0-0.416-0.127-0.482-1.004-0.521l-0.767-0.034-0.037-2.53 3.148 3.144v14.599h-13.402v-9.162zM22.774 5.898c-0.091 0.047-0.204 0.178-0.25 0.292-0.111 0.272 0.027 0.621 0.284 0.719 0.118 0.045 1.801 0.063 4.795 0.051l4.613-0.019 0.165-0.192c0.209-0.243 0.209-0.467 0-0.71l-0.165-0.192-4.638-0.017c-3.597-0.013-4.676 0.002-4.805 0.068zM2.877 8.18c-0.192 0.244-0.182 0.538 0.026 0.746l0.168 0.168h5.004l0.168-0.168c0.222-0.222 0.226-0.574 0.010-0.777-0.157-0.147-0.185-0.149-2.696-0.149h-2.538l-0.142 0.18zM22.632 8.752c-0.223 0.223-0.205 0.582 0.042 0.803l0.171 0.154h4.608c3.232 0 4.658-0.023 4.775-0.076 0.334-0.152 0.411-0.59 0.151-0.85l-0.168-0.168h-4.721c-4.63 0-4.724 0.003-4.858 0.137zM1.852 10.855c-0.080 0.066-0.165 0.233-0.187 0.371-0.034 0.209-0.011 0.281 0.136 0.427l0.176 0.176h9.418l0.149-0.158c0.217-0.231 0.202-0.611-0.032-0.794-0.178-0.14-0.229-0.142-4.847-0.142-4.343 0-4.677 0.008-4.813 0.12zM22.644 11.509c-0.204 0.217-0.199 0.591 0.010 0.787l0.158 0.149h4.689c4.499 0 4.695-0.005 4.849-0.129 0.226-0.183 0.226-0.652 0-0.835-0.153-0.124-0.35-0.129-4.858-0.129h-4.698l-0.149 0.158zM1.939 13.55c-0.157 0.076-0.298 0.327-0.298 0.529 0 0.068 0.064 0.205 0.142 0.305l0.142 0.18h4.747c4.656 0 4.75-0.003 4.884-0.137 0.223-0.223 0.205-0.582-0.042-0.803l-0.171-0.154-4.629 0.005c-3.039 0.003-4.679 0.029-4.775 0.075zM22.674 14.239c-0.246 0.222-0.265 0.58-0.042 0.803 0.134 0.134 0.228 0.137 4.858 0.137h4.721l0.168-0.168c0.261-0.261 0.183-0.698-0.151-0.85-0.117-0.053-1.543-0.076-4.775-0.076h-4.608l-0.171 0.154zM2.007 16.273c-0.192 0.077-0.366 0.332-0.366 0.534 0 0.088 0.090 0.251 0.2 0.361l0.2 0.2h4.582c2.866 0 4.649-0.025 4.76-0.068 0.241-0.092 0.385-0.438 0.292-0.704-0.137-0.395-0.093-0.391-5.023-0.386-2.474 0.002-4.564 0.031-4.644 0.064zM1.809 19.176c-0.261 0.261-0.183 0.698 0.151 0.85 0.117 0.053 1.543 0.076 4.775 0.076h4.608l0.171-0.154c0.246-0.222 0.265-0.58 0.042-0.803-0.134-0.134-0.228-0.137-4.858-0.137h-4.721l-0.168 0.168zM32.581 20.153c-4.546 1.14-31.679 8.194-31.878 8.288-0.433 0.204-0.669 0.602-0.668 1.127 0.001 0.513 0.19 0.853 0.609 1.099 0.503 0.295 0.491 0.297 4.791-0.823 0.489-0.127 2.012-0.521 3.385-0.875s3.768-0.973 5.324-1.374c1.556-0.402 2.842-0.716 2.86-0.699s-0.603 1.129-1.379 2.471c-0.776 1.341-1.428 2.483-1.448 2.536-0.032 0.083 0.389 0.097 2.91 0.097 1.621 0 2.947-0.023 2.946-0.051s-0.661-1.19-1.467-2.581c-0.806-1.392-1.444-2.537-1.417-2.546s3.695-0.956 8.151-2.106c8.891-2.294 8.416-2.144 8.735-2.768 0.186-0.363 0.193-0.691 0.025-1.061-0.257-0.566-0.891-0.881-1.478-0.733z"></path>
        </symbol>

        <symbol id="icon-viber" viewBox="0 0 32 32">
            <path
                d="M16.154 0.31c-8.704 0-15.76 7.055-15.76 15.759s7.056 15.76 15.76 15.76c8.703 0 15.759-7.056 15.759-15.76s-7.056-15.759-15.759-15.759zM15.417 8.635c0.128-0.117 0.218-0.134 0.663-0.12 0.232 0.008 0.573 0.035 0.759 0.057 0.939 0.117 1.698 0.344 2.531 0.751 0.819 0.401 1.343 0.781 2.037 1.472 0.65 0.652 1.010 1.147 1.392 1.914 0.532 1.070 0.835 2.342 0.887 3.743 0.019 0.478 0.005 0.584-0.104 0.721-0.207 0.265-0.663 0.221-0.819-0.076-0.049-0.098-0.063-0.183-0.079-0.565-0.027-0.587-0.068-0.966-0.15-1.42-0.322-1.777-1.174-3.197-2.533-4.215-1.133-0.852-2.304-1.267-3.838-1.357-0.519-0.030-0.609-0.049-0.726-0.139-0.219-0.172-0.229-0.576-0.019-0.764zM18.671 12.151c-0.549-0.328-1.36-0.571-2.099-0.631-0.268-0.022-0.415-0.076-0.516-0.194-0.156-0.177-0.172-0.418-0.041-0.617 0.142-0.221 0.36-0.257 1.013-0.158 1.657 0.243 2.94 1.013 3.781 2.263 0.472 0.704 0.767 1.532 0.868 2.419 0.035 0.325 0.035 0.917-0.003 1.016-0.035 0.093-0.15 0.218-0.248 0.27-0.106 0.055-0.333 0.049-0.459-0.016-0.21-0.106-0.273-0.276-0.273-0.734 0-0.707-0.183-1.452-0.5-2.031-0.36-0.661-0.885-1.207-1.523-1.586zM19.593 15.79c-0.161 0.147-0.459 0.153-0.639 0.014-0.131-0.098-0.172-0.202-0.202-0.483-0.035-0.374-0.101-0.636-0.213-0.879-0.24-0.516-0.663-0.784-1.379-0.871-0.336-0.041-0.437-0.079-0.546-0.207-0.199-0.238-0.123-0.622 0.153-0.764 0.104-0.052 0.147-0.057 0.377-0.044 0.142 0.008 0.352 0.033 0.464 0.057 0.538 0.115 0.95 0.319 1.302 0.65 0.453 0.429 0.702 0.947 0.811 1.693 0.074 0.486 0.044 0.677-0.128 0.835zM23.672 22.962c-0.202 0.521-0.988 1.499-1.537 1.916-0.497 0.377-0.849 0.521-1.313 0.543-0.382 0.019-0.541-0.014-1.029-0.216-3.833-1.581-6.893-3.939-9.323-7.18-1.269-1.693-2.236-3.448-2.897-5.269-0.385-1.062-0.404-1.523-0.087-2.067 0.137-0.229 0.718-0.797 1.141-1.114 0.704-0.524 1.029-0.718 1.289-0.773 0.177-0.038 0.486-0.008 0.682 0.063 0.096 0.033 0.243 0.109 0.328 0.164 0.519 0.344 1.963 2.192 2.435 3.115 0.27 0.527 0.36 0.917 0.276 1.207-0.087 0.311-0.232 0.475-0.879 0.996-0.259 0.21-0.502 0.426-0.54 0.483-0.098 0.142-0.177 0.421-0.177 0.617 0.003 0.456 0.298 1.283 0.685 1.919 0.3 0.494 0.838 1.127 1.37 1.613 0.625 0.573 1.177 0.964 1.799 1.272 0.8 0.399 1.289 0.5 1.646 0.333 0.090-0.041 0.186-0.096 0.216-0.12 0.027-0.025 0.237-0.281 0.467-0.565 0.442-0.557 0.543-0.647 0.846-0.751 0.385-0.131 0.778-0.096 1.174 0.106 0.3 0.156 0.955 0.562 1.379 0.857 0.557 0.391 1.747 1.362 1.908 1.556 0.284 0.349 0.333 0.797 0.142 1.291z"></path>
        </symbol>

        <symbol id="icon-whatsapp" viewBox="0 0 32 32">
            <path fill="#837676" style="fill: var(--color2, #837676)" d="M0 0h32v32h-32v-32z"></path>
            <path fill="#fff" style="fill: var(--color1, #fff)"
                d="M-565.333-9046.667h2560v9857.333h-2560v-9857.333z"></path>
            <path fill="#000" style="fill: var(--color4, #000)"
                d="M16.481 7.791c-4.337 0-7.864 3.527-7.866 7.862-0.001 1.486 0.415 2.933 1.202 4.184l0.187 0.297-0.794 2.901 2.976-0.781 0.287 0.17c1.207 0.716 2.591 1.095 4.002 1.096h0.003c4.334 0 7.861-3.527 7.863-7.863 0.001-2.101-0.816-4.076-2.301-5.563s-3.459-2.305-5.559-2.306zM21.106 19.034c-0.197 0.552-1.141 1.056-1.595 1.124-0.407 0.061-0.923 0.086-1.489-0.094-0.343-0.109-0.783-0.254-1.347-0.498-2.371-1.024-3.92-3.411-4.038-3.569s-0.965-1.282-0.965-2.445c0-1.163 0.611-1.735 0.827-1.972s0.473-0.296 0.63-0.296 0.315 0.001 0.453 0.008c0.145 0.007 0.34-0.055 0.532 0.406 0.197 0.473 0.67 1.637 0.729 1.755s0.099 0.256 0.020 0.414-0.118 0.256-0.236 0.394c-0.118 0.138-0.248 0.308-0.355 0.414-0.118 0.118-0.241 0.246-0.104 0.482s0.612 1.011 1.315 1.637c0.903 0.805 1.665 1.055 1.901 1.173s0.374 0.099 0.512-0.059c0.138-0.158 0.591-0.69 0.749-0.927s0.315-0.197 0.532-0.118c0.217 0.079 1.379 0.651 1.615 0.769s0.394 0.178 0.453 0.276c0.059 0.098 0.059 0.572-0.138 1.124z"></path>
            <path fill="#000" style="fill: var(--color4, #000)"
                d="M16.132 0.239c-8.704 0-15.76 7.055-15.76 15.759s7.056 15.76 15.76 15.76c8.703 0 15.759-7.056 15.759-15.76s-7.056-15.759-15.759-15.759zM16.478 25.12c-0 0 0 0 0 0h-0.004c-1.583-0.001-3.139-0.398-4.521-1.151l-5.015 1.315 1.342-4.902c-0.828-1.435-1.263-3.062-1.263-4.729 0.002-5.216 4.246-9.459 9.46-9.459 2.531 0.001 4.906 0.986 6.692 2.774s2.769 4.165 2.768 6.692c-0.002 5.216-4.246 9.46-9.46 9.46z"></path>
        </symbol>
    </defs>
</svg>